<?xml version="1.0"?>
<svg xmlns="http://www.w3.org/2000/svg" xmlns:xlink="http://www.w3.org/1999/xlink" id="Gradient" viewBox="0 0 512 512" width="512" height="512"><defs><linearGradient id="linear-gradient" x1="256" y1="496" x2="256" y2="15.999" gradientUnits="userSpaceOnUse"><stop offset="0" stop-color="#27c1e6"/><stop offset="0.5" stop-color="#c275e9"/><stop offset="1" stop-color="#f2515d"/></linearGradient></defs><path d="M491.969,97.054,439.487,67.065A24.039,24.039,0,0,0,416,48V24a8,8,0,0,0-12.8-6.4L371.415,41.439C367.629,43.917,352,54.947,352,68a27.964,27.964,0,0,0,.729,6.369A28.043,28.043,0,0,0,336,100a27.639,27.639,0,0,0,.307,4.107A27.988,27.988,0,0,0,333.02,140a28.008,28.008,0,0,0,0,32,28.058,28.058,0,0,0-4.291,22.37,28.17,28.17,0,0,0-14.355,14.36A28,28,0,0,0,308,208a27.721,27.721,0,0,0-16,5.02,27.956,27.956,0,0,0-26.536-2.952,27.9,27.9,0,0,0-32-8,27.9,27.9,0,0,0-32-8A28.1,28.1,0,0,0,180,184a27.728,27.728,0,0,0-16,5.019A27.728,27.728,0,0,0,148,184a28.1,28.1,0,0,0-21.464,10.068,27.532,27.532,0,0,0-14.543-1.765c0-.1.007-.2.007-.3a48,48,0,0,0-96,0,8,8,0,0,0,12.8,6.4,31.975,31.975,0,0,1,43.105,4.351,27.945,27.945,0,0,0-13.216,13.28,28.021,28.021,0,0,0-25.962,34.339A28.043,28.043,0,0,0,16,276a27.728,27.728,0,0,0,5.019,16A27.728,27.728,0,0,0,16,308a28.03,28.03,0,0,0,16.73,25.625,28.026,28.026,0,0,0,7.576,26.269A27.749,27.749,0,0,0,40,364a28.1,28.1,0,0,0,10.068,21.463A27.961,27.961,0,0,0,53.019,412,27.728,27.728,0,0,0,48,428a28.034,28.034,0,0,0,16,25.293V456a7.977,7.977,0,0,0,.239,1.94l4.97,19.88A23.964,23.964,0,0,0,92.49,496H128a8,8,0,0,0,8-8V472a8,8,0,0,0-3.562-6.656l-17.124-11.416A32.06,32.06,0,0,0,134.8,415.264a32.283,32.283,0,0,0,21.97-17.3A32.019,32.019,0,0,0,188,392.981a32,32,0,0,0,40,0,32,32,0,0,0,40,0,32.026,32.026,0,0,0,29.419,5.605A31.918,31.918,0,0,0,304,429.132V456a7.977,7.977,0,0,0,.239,1.94l4.97,19.88A23.965,23.965,0,0,0,332.49,496H368a8,8,0,0,0,8-8V472a8,8,0,0,0-3.562-6.656L352,451.719V429.132A31.924,31.924,0,0,0,357.661,396,32.021,32.021,0,0,0,360,384c0-.1,0-.19,0-.285A28,28,0,0,0,382.1,366.1a28,28,0,0,0,17.866-24.795,27.943,27.943,0,0,0,16-24,27.967,27.967,0,0,0,13.962-35.846,27.9,27.9,0,0,0,8-32A28.093,28.093,0,0,0,448,228a27.721,27.721,0,0,0-5.02-16,28.008,28.008,0,0,0,0-32,28.033,28.033,0,0,0,4.239-22.579A37.883,37.883,0,0,0,458.8,152H472c13.686,0,19.433-14.374,21.845-26.431A123.742,123.742,0,0,0,496,104,8,8,0,0,0,491.969,97.054ZM48,176a48.069,48.069,0,0,0-12.606,1.666,32,32,0,0,1,59,24.349,27.94,27.94,0,0,0-4.464-1.369A48,48,0,0,0,48,176Zm72,300.281V480H92.49a7.988,7.988,0,0,1-7.759-6.061l-4.566-18.263a27.916,27.916,0,0,0,9.333-3.144,31.42,31.42,0,0,0,6.5,2.453V456a8,8,0,0,0,3.562,6.656Zm240,0V480H332.49a7.989,7.989,0,0,1-7.76-6.061L320,455.015V438.987a32.1,32.1,0,0,0,16,0V456a8,8,0,0,0,3.562,6.656ZM427.162,186.4a11.94,11.94,0,0,1,0,19.2,8,8,0,0,0,0,12.8A11.912,11.912,0,0,1,432,228a12.053,12.053,0,0,1-7.845,11.24,8,8,0,0,0-3.192,12.816,11.951,11.951,0,0,1-4.808,19.184,8,8,0,0,0-3.192,12.816,11.957,11.957,0,0,1-6.841,19.737,8,8,0,0,0-6.413,9.609A11.838,11.838,0,0,1,400,316a11.958,11.958,0,0,1-9.878,11.793,8,8,0,0,0-6.413,9.609A11.838,11.838,0,0,1,384,340a11.984,11.984,0,0,1-9.805,11.783,8,8,0,0,0-6.411,6.411A11.987,11.987,0,0,1,356,368a12.149,12.149,0,0,1-3.421-.5,8,8,0,0,0-9.7,10.617A16.009,16.009,0,0,1,341.854,392a8,8,0,0,0,0,8.006,16,16,0,1,1-27.708,0,8,8,0,0,0,0-8.011,15.644,15.644,0,0,1-2.085-6.755,8,8,0,0,0-13.335-5.36,16,16,0,0,1-24.061-3.045,8,8,0,0,0-13.326,0,15.992,15.992,0,0,1-26.674,0,8,8,0,0,0-13.326,0,15.992,15.992,0,0,1-26.674,0,8,8,0,0,0-13.326,0,15.976,15.976,0,0,1-24.036,3.049,8,8,0,0,0-13.348,5.331A16.059,16.059,0,0,1,128,400a15.858,15.858,0,0,1-4.761-.722,8,8,0,0,0-8.011,13.333,15.993,15.993,0,0,1-21.041,24.02,8,8,0,0,0-10.224.341A11.987,11.987,0,1,1,68.838,418.4a8,8,0,0,0,0-12.8,11.924,11.924,0,0,1-1.8-17.541,8,8,0,0,0-3.193-12.817A11.94,11.94,0,0,1,56.8,359.732a8,8,0,0,0-3.2-9.6,11.932,11.932,0,0,1-3.184-17.312A8.011,8.011,0,0,0,44,320a11.98,11.98,0,0,1-7.162-21.6,8,8,0,0,0,0-12.8A11.98,11.98,0,0,1,44.03,264a8,8,0,0,0,6.386-12.819A11.835,11.835,0,0,1,48,244a12.013,12.013,0,0,1,12-12,11.863,11.863,0,0,1,2.6.291,8,8,0,0,0,9.607-6.414,11.955,11.955,0,0,1,19.735-6.84,8,8,0,0,0,12.817-3.192,11.95,11.95,0,0,1,19.183-4.808,8,8,0,0,0,12.817-3.192A12.057,12.057,0,0,1,148,200a11.909,11.909,0,0,1,9.6,4.838,8,8,0,0,0,12.8,0A11.909,11.909,0,0,1,180,200a12.057,12.057,0,0,1,11.241,7.845,8,8,0,0,0,12.817,3.192,11.95,11.95,0,0,1,19.183,4.808,8,8,0,0,0,12.817,3.192,11.95,11.95,0,0,1,19.183,4.808,8,8,0,0,0,12.817,3.192,11.925,11.925,0,0,1,17.541,1.8,8,8,0,0,0,12.8,0,11.918,11.918,0,0,1,16.781-2.422A8.011,8.011,0,0,0,328,220a12.02,12.02,0,0,1,12.03-12,8,8,0,0,0,6.386-12.819,11.916,11.916,0,0,1,2.422-16.779,8,8,0,0,0,0-12.8,11.94,11.94,0,0,1,0-19.2,8,8,0,0,0,0-12.8,11.952,11.952,0,0,1,.763-19.729,8,8,0,0,0,3.2-9.6A11.968,11.968,0,0,1,364.03,88a8,8,0,0,0,6.386-12.819A11.841,11.841,0,0,1,368,68c0-2.7,6-9.16,12.336-13.277q.237-.153.464-.323L400,40V56a8,8,0,0,0,8,8h8a8,8,0,0,1,0,16,7.88,7.88,0,0,1-4.085-1.143A8,8,0,0,0,399.9,86.884,7.8,7.8,0,0,1,400,88a7.914,7.914,0,0,1-3.385,6.519,8,8,0,0,0-.679,12.5,11.945,11.945,0,0,1,1.46,16.421,8,8,0,0,0,4.425,12.777A7.967,7.967,0,0,1,408,143.824c-.011.193-.018.384-.018.576a8,8,0,0,0,9.568,7.845A12.579,12.579,0,0,1,420,152a11.98,11.98,0,0,1,7.162,21.6,8,8,0,0,0,0,12.8Zm50.993-63.971C476.1,132.683,473.123,136,472,136H456a8,8,0,0,0-5.657,2.343c-.041.041-4.013,3.644-11.974,4.55a27.878,27.878,0,0,0-15.681-6.765,23.85,23.85,0,0,0-8.147-11.238,27.856,27.856,0,0,0-2.659-23.473,24.132,24.132,0,0,0,2.75-5.457q.682.04,1.368.04a24.009,24.009,0,0,0,20.8-12.045l43.044,24.6A102.6,102.6,0,0,1,478.155,122.431ZM440,104a8,8,0,1,1-8,8A8,8,0,0,1,440,104Z" style="fill:url(#linear-gradient)"/></svg>
